<?xml version="1.0" encoding="UTF-8" standalone="no"?>
<!-- Created with Inkscape (http://www.inkscape.org/) -->
<svg
   xmlns:dc="http://purl.org/dc/elements/1.1/"
   xmlns:cc="http://creativecommons.org/ns#"
   xmlns:rdf="http://www.w3.org/1999/02/22-rdf-syntax-ns#"
   xmlns:svg="http://www.w3.org/2000/svg"
   xmlns="http://www.w3.org/2000/svg"
   xmlns:sodipodi="http://sodipodi.sourceforge.net/DTD/sodipodi-0.dtd"
   xmlns:inkscape="http://www.inkscape.org/namespaces/inkscape"
   width="744.09448819"
   height="1052.3622047"
   id="svg2"
   sodipodi:version="0.32"
   inkscape:version="0.46"
   sodipodi:docname="diag.svg"
   inkscape:output_extension="org.inkscape.output.svg.inkscape">
  <defs
     id="defs4">
    <inkscape:perspective
       sodipodi:type="inkscape:persp3d"
       inkscape:vp_x="0 : 526.18109 : 1"
       inkscape:vp_y="0 : 1000 : 0"
       inkscape:vp_z="744.09448 : 526.18109 : 1"
       inkscape:persp3d-origin="372.04724 : 350.78739 : 1"
       id="perspective10" />
  </defs>
  <sodipodi:namedview
     id="base"
     pagecolor="#ffffff"
     bordercolor="#666666"
     borderopacity="1.0"
     gridtolerance="10000"
     guidetolerance="10"
     objecttolerance="10"
     inkscape:pageopacity="0.0"
     inkscape:pageshadow="2"
     inkscape:zoom="1"
     inkscape:cx="382"
     inkscape:cy="782"
     inkscape:document-units="px"
     inkscape:current-layer="layer4"
     showgrid="false"
     inkscape:window-width="1280"
     inkscape:window-height="725"
     inkscape:window-x="0"
     inkscape:window-y="25" />
  <metadata
     id="metadata7">
    <rdf:RDF>
      <cc:Work
         rdf:about="">
        <dc:format>image/svg+xml</dc:format>
        <dc:type
           rdf:resource="http://purl.org/dc/dcmitype/StillImage" />
      </cc:Work>
    </rdf:RDF>
  </metadata>
  <g
     inkscape:label="Layer 1"
     inkscape:groupmode="layer"
     id="layer1"
     style="display:inline">
    <path
       style="fill:none;fill-rule:evenodd;stroke:#000000;stroke-width:1px;stroke-linecap:butt;stroke-linejoin:miter;stroke-opacity:1"
       d="M 307.85715,180.93361 L 307.85715,418.07646"
       id="path2391" />
    <path
       style="fill:none;fill-rule:evenodd;stroke:#000000;stroke-width:0.99999994px;stroke-linecap:butt;stroke-linejoin:miter;stroke-opacity:1"
       d="M 196.35894,300.93361 L 454.57689,300.93361"
       id="path2393" />
    <path
       style="fill:none;fill-rule:evenodd;stroke:#000000;stroke-width:0.99999994px;stroke-linecap:butt;stroke-linejoin:miter;stroke-opacity:1"
       d="M 328.78807,294.13741 C 328.78807,295.25234 328.78807,299.46418 328.78807,302.08759 C 328.78807,304.57203 328.78807,307.05646 328.78807,309.54089"
       id="path2395" />
    <path
       style="fill:none;fill-rule:evenodd;stroke:#000000;stroke-width:1px;stroke-linecap:butt;stroke-linejoin:miter;stroke-opacity:1"
       d="M 401.42857,320.93361 C 401.42857,324.07205 399.48161,329.70093 402.14286,332.36218 C 405.11005,335.32937 411.30919,334.50504 415.71429,334.50504 C 416.42857,334.50504 417.14286,334.50504 417.85714,334.50504"
       id="path2405" />
    <path
       style="fill:none;fill-rule:evenodd;stroke:#000000;stroke-width:1px;stroke-linecap:butt;stroke-linejoin:miter;stroke-opacity:1"
       d="M 411.42857,328.79075 C 415.95238,328.79075 411.42857,337.83837 411.42857,342.36218 C 411.42857,343.22065 410.47619,343.79075 410,344.50504"
       id="path2407" />
    <path
       style="fill:none;fill-rule:evenodd;stroke:#000000;stroke-width:1px;stroke-linecap:butt;stroke-linejoin:miter;stroke-opacity:1"
       d="M 402.85714,268.07647 C 402.85714,270.65186 397.58032,270.05868 396.42857,272.36218 C 394.59284,276.03364 397.08639,280.16285 399.28571,282.36218 C 402.54462,285.62109 407.66375,279.89182 408.57143,278.07647 C 410.39131,274.43671 412.00894,272.94255 408.57143,269.50504 C 407.18311,268.11672 404.6801,268.80565 402.85714,268.07647 z"
       id="path2409" />
    <path
       style="fill:none;fill-rule:evenodd;stroke:#000000;stroke-width:3;stroke-linecap:butt;stroke-linejoin:miter;stroke-miterlimit:4;stroke-dasharray:none;stroke-opacity:1"
       d="M 395,274.50504 C 393.64283,273.14787 386.12719,273.8661 383.57143,274.50504 C 381.75573,274.95896 379.49623,274.80955 377.85714,275.21932"
       id="path2411" />
    <path
       style="fill:none;fill-rule:evenodd;stroke:#000000;stroke-width:1px;stroke-linecap:butt;stroke-linejoin:miter;stroke-opacity:1"
       d="M 402.85714,245.21932 C 398.4944,246.31001 397.14286,245.90804 397.14286,252.36218 C 397.14286,257.18308 405.24826,255.59824 407.14286,255.21932 C 411.05406,254.43708 407.46134,245.21932 402.85714,245.21932 z"
       id="path2413" />
    <path
       style="fill:none;fill-rule:evenodd;stroke:#000000;stroke-width:3;stroke-linecap:butt;stroke-linejoin:miter;stroke-miterlimit:4;stroke-dasharray:none;stroke-opacity:1"
       d="M 409.28571,251.6479 C 409.83593,251.53785 418.25397,252.36218 422.14286,252.36218 C 425.2381,252.36218 428.33333,252.36218 431.42857,252.36218"
       id="path2415" />
    <path
       style="fill:none;fill-rule:evenodd;stroke:#000000;stroke-width:1px;stroke-linecap:butt;stroke-linejoin:miter;stroke-opacity:1"
       d="M 299.19906,283.02082 C 299.97658,283.02082 306.80534,283.02082 310.62763,283.02082 C 312.29429,283.02082 313.96096,283.02082 315.62763,283.02082"
       id="path2421" />
    <path
       style="fill:none;fill-rule:evenodd;stroke:#000000;stroke-width:1px;stroke-linecap:butt;stroke-linejoin:miter;stroke-opacity:1"
       d="M 279.70413,203.22132 C 282.08181,203.22132 281.84698,211.43446 281.84698,215.36418 C 281.84698,218.60262 290.34726,215.07957 291.1327,218.22132 C 292.15976,222.32957 287.33647,225.42038 284.70413,226.07846 C 283.9642,226.26345 282.66603,226.07846 281.84698,226.07846"
       id="path2427" />
    <path
       style="fill:none;fill-rule:evenodd;stroke:#000000;stroke-width:1px;stroke-linecap:butt;stroke-linejoin:miter;stroke-opacity:1"
       d="M 280.83683,203.21389 C 277.59479,204.0244 287.49501,202.4996 290.83683,202.4996"
       id="path2429" />
    <path
       style="fill:none;fill-rule:evenodd;stroke:#000000;stroke-width:1px;stroke-linecap:butt;stroke-linejoin:miter;stroke-opacity:1"
       d="M 323.4711,209.66158 C 320.17204,210.48635 318.75534,214.49051 319.92078,219.15225 C 320.75426,222.48618 326.58216,221.05833 328.49221,220.58082 C 332.89715,219.47958 332.13457,213.57982 330.63506,210.58082 C 328.79808,206.90686 322.98886,210.33729 320.63506,209.86653"
       id="path2431"
       sodipodi:nodetypes="csssc" />
    <path
       style="fill:none;fill-rule:evenodd;stroke:#000000;stroke-width:0.99999994px;stroke-linecap:butt;stroke-linejoin:miter;stroke-opacity:1"
       d="M 354.81608,293.35949 C 354.81608,294.47442 354.81608,298.68626 354.81608,301.30967 C 354.81608,303.79411 354.81608,306.27854 354.81608,308.76297"
       id="path2437" />
    <path
       style="fill:none;fill-rule:evenodd;stroke:#000000;stroke-width:0.99999994px;stroke-linecap:butt;stroke-linejoin:miter;stroke-opacity:1"
       d="M 379.56482,293.35948 C 379.56482,294.47441 379.56482,298.68625 379.56482,301.30966 C 379.56482,303.7941 379.56482,306.27853 379.56482,308.76296"
       id="path2439" />
    <path
       style="fill:none;fill-rule:evenodd;stroke:#000000;stroke-width:0.99999994px;stroke-linecap:butt;stroke-linejoin:miter;stroke-opacity:1"
       d="M 403.80848,292.60187 C 403.80848,293.7168 403.80848,297.92864 403.80848,300.55205 C 403.80848,303.03649 403.80848,305.52092 403.80848,308.00535"
       id="path2441" />
    <path
       style="fill:none;fill-rule:evenodd;stroke:#000000;stroke-width:0.99999994px;stroke-linecap:butt;stroke-linejoin:miter;stroke-opacity:1"
       d="M 429.56737,292.85441 C 429.56737,293.96934 429.56737,298.18118 429.56737,300.80459 C 429.56737,303.28903 429.56737,305.77346 429.56737,308.25789"
       id="path2443" />
    <path
       style="fill:none;fill-rule:evenodd;stroke:#000000;stroke-width:1px;stroke-linecap:butt;stroke-linejoin:miter;stroke-opacity:1"
       d="M 299.37716,265.95842 C 300.15468,265.95842 306.98344,265.95842 310.80573,265.95842 C 312.47239,265.95842 314.13906,265.95842 315.80573,265.95842"
       id="path2445" />
    <path
       style="fill:none;fill-rule:evenodd;stroke:#000000;stroke-width:1px;stroke-linecap:butt;stroke-linejoin:miter;stroke-opacity:1"
       d="M 299.37717,249.2909 C 300.15469,249.2909 306.98345,249.2909 310.80574,249.2909 C 312.4724,249.2909 314.13907,249.2909 315.80574,249.2909"
       id="path2447" />
    <path
       style="fill:none;fill-rule:evenodd;stroke:#000000;stroke-width:1px;stroke-linecap:butt;stroke-linejoin:miter;stroke-opacity:1"
       d="M 299.37717,231.3607 C 300.15469,231.3607 306.98345,231.3607 310.80574,231.3607 C 312.4724,231.3607 314.13907,231.3607 315.80574,231.3607"
       id="path2449" />
    <path
       style="fill:none;fill-rule:evenodd;stroke:#000000;stroke-width:1px;stroke-linecap:butt;stroke-linejoin:miter;stroke-opacity:1"
       d="M 299.6297,214.18811 C 300.40722,214.18811 307.23598,214.18811 311.05827,214.18811 C 312.72493,214.18811 314.3916,214.18811 316.05827,214.18811"
       id="path2451" />
    <path
       style="fill:none;fill-rule:evenodd;stroke:#000000;stroke-width:1px;stroke-linecap:butt;stroke-linejoin:miter;stroke-opacity:1"
       d="M 301.53054,190.70206 C 301.57187,189.77124 302.77252,188.21809 303.2983,187.16653 C 304.06376,185.63562 304.87864,184.82857 306.07622,183.63099 C 307.11796,182.58925 307.99698,181.15416 308.6016,180.348 C 309.30328,179.41243 309.84637,182.33246 310.36937,183.37845 C 311.04026,184.72024 311.52799,185.19061 312.13714,186.40891 C 312.67221,187.47906 313.66143,188.43828 314.40998,189.18683 C 314.57834,189.35519 314.7467,189.52355 314.91506,189.69191"
       id="path2453" />
    <path
       style="fill:none;fill-rule:evenodd;stroke:#000000;stroke-width:1px;stroke-linecap:butt;stroke-linejoin:miter;stroke-opacity:1"
       d="M 447.49757,293.23255 C 448.5516,293.28765 450.00571,294.22546 451.03311,295.25286 C 452.1376,296.35734 452.29658,297.52648 453.30595,298.53585 C 454.74384,299.97374 455.03628,300.5936 453.81103,301.81885 C 452.77075,302.85912 451.53092,303.84642 450.78057,304.59677 C 449.80662,305.57072 448.67467,306.53572 448.25519,307.37469"
       id="path2403" />
    <path
       style="fill:none;fill-rule:evenodd;stroke:#000000;stroke-width:1px;stroke-linecap:butt;stroke-linejoin:miter;stroke-opacity:1"
       d="M 460.8821,305.85946 C 459.56536,307.17619 463.08103,304.41814 464.67017,302.829 C 465.98044,301.51872 466.96796,300.53121 467.95316,299.546 C 468.3343,299.16487 468.83472,298.91699 469.21585,298.53585"
       id="path2406" />
    <path
       style="fill:none;fill-rule:evenodd;stroke:#000000;stroke-width:1px;stroke-linecap:butt;stroke-linejoin:miter;stroke-opacity:1"
       d="M 461.63971,298.28331 C 462.47569,297.44733 464.21255,299.98838 464.41763,300.80869 C 464.72128,302.02331 465.34045,302.73219 465.68032,304.09169 C 466.10246,305.78023 466.77099,305.93997 467.70063,306.86961 C 468.6696,307.83859 469.76211,305.06067 470.73108,304.09169"
       id="path2408" />
    <path
       style="fill:none;fill-rule:evenodd;stroke:#000000;stroke-width:1px;stroke-linecap:butt;stroke-linejoin:miter;stroke-opacity:1"
       d="M 305.57114,163.93303 C 306.42339,164.78528 305.77774,161.12065 304.81353,160.39749 C 303.7119,159.57127 302.02881,160.40089 301.53053,160.65003 C 300.93202,160.94928 301.27799,163.54457 301.27799,164.18556 C 301.27799,165.44825 301.27799,166.71094 301.27799,167.97364 C 301.27799,169.42234 301.02546,170.54972 301.02546,172.01425 C 301.02546,172.68768 301.02546,173.36112 301.02546,174.03455"
       id="path2410" />
    <path
       style="fill:none;fill-rule:evenodd;stroke:#000000;stroke-width:1px;stroke-linecap:butt;stroke-linejoin:miter;stroke-opacity:1"
       d="M 297.995,167.7211 C 297.995,169.06797 300.68874,167.7211 302.03561,167.7211 C 303.27677,167.7211 304.69827,167.75542 305.57114,167.97364"
       id="path2412" />
    <path
       style="fill:none;fill-rule:evenodd;stroke:#000000;stroke-width:1px;stroke-linecap:butt;stroke-linejoin:miter;stroke-opacity:1"
       d="M 310.13713,161.15511 C 311.60726,161.15511 309.02683,163.88079 308.36937,165.19572 C 307.87739,166.17966 308.11683,167.81193 308.11683,168.98379 C 308.11683,170.54832 307.89876,171.89659 309.37952,172.26678"
       id="path2414" />
    <path
       style="fill:none;fill-rule:evenodd;stroke:#000000;stroke-width:1px;stroke-linecap:butt;stroke-linejoin:miter;stroke-opacity:1"
       d="M 311.37952,170.75156 C 311.37952,170.79064 313.83483,168.29625 314.40998,167.7211 C 314.99923,167.13184 315.58849,166.54259 316.17774,165.95333"
       id="path2416" />
    <path
       style="fill:none;fill-rule:evenodd;stroke:#000000;stroke-width:1px;stroke-linecap:butt;stroke-linejoin:miter;stroke-opacity:1"
       d="M 311.8846,165.70079 C 312.97731,164.60808 313.46635,168.35922 314.15744,169.74141 C 315.04658,171.51968 315.99494,170.29218 317.1879,169.99394"
       id="path2418" />
    <path
       style="fill:none;fill-rule:evenodd;stroke:#000000;stroke-width:1px;stroke-linecap:butt;stroke-linejoin:miter;stroke-opacity:1"
       d="M 318.74374,162.16526 C 319.05694,162.79166 319.24881,164.55732 319.24881,166.20587 C 319.24881,167.46856 319.24881,168.73125 319.24881,169.99394 C 319.24881,171.49971 318.57357,172.44236 318.23866,173.78201"
       id="path2420" />
    <path
       style="fill:none;fill-rule:evenodd;stroke:#000000;stroke-width:3;stroke-linecap:butt;stroke-linejoin:miter;stroke-miterlimit:4;stroke-dasharray:none;stroke-opacity:1"
       d="M 332.02906,214.75178 C 332.51796,214.99057 334.02353,214.56793 334.97062,214.56793 C 336.02363,214.56793 337.17941,214.75178 338.27988,214.75178 C 339.19912,214.75178 340.11836,214.75178 341.0376,214.75178 C 341.95684,214.75178 342.87608,214.75178 343.79531,214.75178 C 344.71455,214.75178 345.63379,214.75178 346.55303,214.75178 C 347.13298,214.75178 347.49435,214.84922 347.83997,214.93563"
       id="path2422" />
    <path
       style="fill:none;fill-rule:evenodd;stroke:#000000;stroke-width:3;stroke-linecap:butt;stroke-linejoin:miter;stroke-miterlimit:4;stroke-dasharray:none;stroke-opacity:1"
       d="M 319.71126,214.38408 C 320.6305,214.38408 317.87278,214.38408 316.95354,214.38408 C 315.89306,214.38408 314.82936,214.31762 313.82813,214.56793 C 312.97793,214.78048 311.76142,214.56793 310.88657,214.56793 C 309.84476,214.56793 308.80296,214.56793 307.76115,214.56793 C 306.78063,214.56793 305.80011,214.56793 304.81959,214.56793 C 303.90035,214.56793 302.98111,214.56793 302.06187,214.56793 C 300.8975,214.56793 299.73313,214.56793 298.56877,214.56793 C 297.58824,214.56793 296.60772,214.56793 295.6272,214.56793 C 294.5854,214.56793 293.54359,214.56793 292.50179,214.56793 C 292.19538,214.56793 291.88896,214.56793 291.58255,214.56793"
       id="path2424" />
  </g>
  <g
     inkscape:groupmode="layer"
     id="layer2"
     inkscape:label="values"
     style="display:inline">
    <path
       style="fill:#000000;stroke:#000000;stroke-width:1px;stroke-linecap:butt;stroke-linejoin:miter;stroke-opacity:1"
       d="M 399.63057,254.70502 C 398.18788,254.18292 397.88124,253.56241 397.88124,251.16507 C 397.88124,247.57088 398.93131,246.43722 402.61451,246.05502 C 403.99501,245.91177 404.13377,245.96112 405.29519,247.00838 C 407.432,248.93517 408.77032,252.71525 407.78471,254.04005 C 407.0723,254.99762 401.65896,255.43908 399.63056,254.70502 L 399.63057,254.70502 z"
       id="path3201" />
  </g>
  <g
     inkscape:groupmode="layer"
     id="layer3"
     inkscape:label="function1"
     style="display:none">
    <path
       style="fill:none;fill-rule:evenodd;stroke:#000000;stroke-width:3;stroke-linecap:butt;stroke-linejoin:miter;stroke-miterlimit:4;stroke-dasharray:none;stroke-opacity:1"
       d="M 431.47789,252.67463 C 432.75684,252.67463 437.5883,252.67463 440.59763,252.67463 C 443.23244,252.67463 446.57672,251.53466 449.71738,251.53466 C 453.2814,251.53466 455.99269,251.81828 459.40711,250.96468 C 462.62375,250.16052 463.75987,248.5033 466.8169,246.97479 C 468.72888,246.0188 471.51227,242.8494 473.65671,240.70497 C 475.35984,239.00184 477.70704,238.39481 479.92653,237.28506 C 482.00503,236.24581 487.30877,236.1451 489.61626,236.1451 C 493.03616,236.1451 496.45607,236.1451 499.87597,236.1451 C 501.90512,236.1451 511.2192,241.53172 512.9856,242.41492 C 516.47286,244.15855 518.6163,248.04562 520.96538,250.3947 C 523.74368,253.173 526.67277,257.24709 528.37517,260.08442 C 530.12806,263.00591 531.77839,265.19203 533.50503,267.49422 C 535.79849,270.55217 538.63196,273.47686 542.05479,276.04398 C 544.51374,277.88819 547.11116,279.71213 550.03456,281.17383 C 552.73955,282.52632 555.17534,285.45417 558.01434,286.87367 C 560.60974,288.17137 563.36922,289.06737 565.99411,289.72359 C 569.46578,290.59151 572.78831,291.88041 576.25383,292.57351 C 579.09153,293.14105 582.05543,293.71348 584.80359,293.71348 C 587.05153,293.71348 589.96495,294.41808 592.78336,293.71348"
       id="path3204" />
    <path
       style="fill:none;fill-rule:evenodd;stroke:#000000;stroke-width:3;stroke-linecap:butt;stroke-linejoin:miter;stroke-miterlimit:4;stroke-dasharray:none;stroke-opacity:1"
       d="M 345.98029,213.91572 C 347.68685,214.30944 351.57416,217.1237 353.39008,220.75553 C 354.478,222.93137 355.62215,225.69391 356.24,228.16532 C 356.82875,230.52033 358.54046,233.33622 359.6599,235.57511 C 360.7586,237.7725 361.83143,240.84131 362.50982,243.55489 C 363.35491,246.93525 364.69027,249.42677 365.35974,252.10465 C 365.93826,254.4187 367.62655,256.04201 368.20966,258.37447 C 368.8903,261.09701 370.38011,262.49638 371.05958,265.21428 C 371.80304,268.18811 375.20577,272.21039 376.75942,273.76404 C 378.11523,275.11984 379.70863,275.47399 381.88928,275.47399"
       id="path3208" />
    <path
       style="fill:none;fill-rule:evenodd;stroke:#000000;stroke-width:3;stroke-linecap:butt;stroke-linejoin:miter;stroke-miterlimit:4;stroke-dasharray:none;stroke-opacity:1"
       d="M 294.11174,213.34574 C 296.39563,215.62963 287.65193,213.34574 284.42202,213.34574 C 281.53061,213.34574 278.30992,215.01625 275.87226,215.62567 C 273.39249,216.24561 270.86021,219.14431 270.17242,221.8955 C 269.56582,224.32188 265.91245,227.5655 265.04256,229.30529 C 263.47686,232.4367 261.79734,234.30639 261.05267,237.28506 C 260.37191,240.00811 258.05652,243.56983 257.63277,245.26484 C 256.77857,248.68163 256.30687,249.62659 254.78285,252.67463 C 253.25208,255.73617 252.12208,257.99616 250.79296,260.65441 C 249.43332,263.37369 248.53437,265.69886 247.94304,268.0642 C 247.11575,271.37337 245.3281,272.82413 244.52314,276.04398 C 243.79623,278.9516 241.32844,280.94863 239.39328,282.88378 C 236.85101,285.42606 234.90317,286.71373 231.98349,287.44366 C 229.77225,287.99646 225.4258,290.58144 224.00371,292.00353 C 222.9062,293.10104 216.55284,293.86625 214.88397,294.28346 C 211.79165,295.05654 209.7967,295.84027 206.90419,296.5634 C 204.10328,297.26363 201.22195,298.26895 198.92442,298.84334 C 196.43891,299.46471 192.95182,298.84334 190.37466,298.84334 C 187.52474,298.84334 184.67482,298.84334 181.8249,298.84334 C 180.30494,298.84334 178.78498,298.84334 177.26502,298.84334"
       id="path3210" />
  </g>
  <g
     inkscape:groupmode="layer"
     id="layer4"
     inkscape:label="function2"
     style="display:inline">
    <path
       style="fill:none;fill-rule:evenodd;stroke:#000000;stroke-width:3;stroke-linecap:butt;stroke-linejoin:miter;stroke-miterlimit:4;stroke-dasharray:none;stroke-opacity:1"
       d="M 430.9079,251.53466 C 432.62663,252.17573 437.10823,252.67463 440.59763,252.67463 C 443.02383,252.67463 446.61286,250.72814 448.57741,249.25473 C 450.54915,247.77592 454.76572,247.01555 457.12717,245.83482 C 459.85314,244.47184 463.31455,245.02107 466.24691,243.55489 C 468.04331,242.65669 472.7353,243.55489 474.79667,243.55489 C 478.64927,243.55489 479.88352,246.09831 482.77645,247.54478 C 484.97667,248.64489 487.83166,251.62514 489.04627,253.24462 C 490.66178,255.39862 494.55887,255.84488 496.45606,258.37447 C 497.30842,259.51095 502.76554,260.23683 504.43584,260.65441 C 507.54255,261.43108 510.65696,260.08442 513.55558,260.08442 C 516.71149,260.08442 520.23203,259.54711 523.24531,258.94446 C 526.45456,258.30261 531.9852,254.73733 534.07501,253.24462 C 536.89533,251.2301 540.57423,250.65013 543.19475,248.68474 C 545.82026,246.71561 547.9975,245.42839 550.60454,244.12487 C 554.06816,242.39306 556.19791,237.39154 559.1543,234.43514 C 561.84346,231.74599 562.35621,228.9533 564.85414,226.45537 C 567.35896,223.95055 567.49929,221.53029 569.984,219.04558 C 571.29874,217.73083 571.95309,213.57021 573.4039,211.63578 C 575.46771,208.88404 577.86561,204.04867 578.53376,201.37607 C 579.1935,198.73711 581.26145,194.78073 582.52365,192.25633 C 582.76397,191.77567 583.28363,191.49635 583.66362,191.11636"
       id="path3213" />
    <path
       style="fill:none;fill-rule:evenodd;stroke:#000000;stroke-width:3;stroke-linecap:butt;stroke-linejoin:miter;stroke-miterlimit:4;stroke-dasharray:none;stroke-opacity:1"
       d="M 379.57338,275.77006 C 380.49245,273.93191 373.83796,271.8599 373.33952,269.86615 C 372.6024,266.91765 372.80022,263.65774 372.19955,260.65441 C 371.5709,257.51117 371.05958,255.99501 371.05958,252.67463 C 371.05958,249.53057 369.94822,245.97786 369.34963,242.9849 C 368.85685,240.52099 367.05482,237.22558 366.49971,235.00513 C 365.73917,231.96294 365.35974,229.57353 365.35974,225.88538 C 364.21778,216.47444 361.71383,206.67775 361.36074,197.19011 C 359.8873,188.33559 361.19063,185.88231 356.80998,180.85665 C 354.17711,177.34615 348.28604,212.30196 347.77459,214.34776"
       id="path3215"
       sodipodi:nodetypes="cssssscccc" />
    <path
       style="fill:none;fill-rule:evenodd;stroke:#000000;stroke-width:3;stroke-linecap:butt;stroke-linejoin:miter;stroke-miterlimit:4;stroke-dasharray:none;stroke-opacity:1"
       d="M 294,214.36218 C 291.11044,209.97108 284.01187,210.36218 277,210.36218 C 272,210.36218 267,210.36218 262,210.36218 C 256.72766,210.36218 253.12007,206.45223 249,203.36218 C 243.67554,199.36884 242.83695,198.82142 237,197.36218 C 231.39828,195.96175 228.43395,199.78672 225,202.36218 C 221.90113,204.68634 218.78965,210.78289 217,214.36218 C 214.82546,218.71126 206.14224,218.36218 202,218.36218 C 195.89161,218.36218 191.57261,217.75533 186,216.36218 C 182.43346,215.47055 176.39905,207.76123 174,205.36218 C 170.10896,201.47114 166.46063,194.28344 164,189.36218 C 160.87654,183.11527 153.04845,177.45908 150,171.36218 C 147.77466,166.91151 142.71736,159.98533 140,156.36218"
       id="path3217" />
  </g>
</svg>
