<?xml version="1.0" encoding="UTF-8" standalone="no"?>
<!-- Created with Inkscape (http://www.inkscape.org/) -->
<svg
   xmlns:dc="http://purl.org/dc/elements/1.1/"
   xmlns:cc="http://creativecommons.org/ns#"
   xmlns:rdf="http://www.w3.org/1999/02/22-rdf-syntax-ns#"
   xmlns:svg="http://www.w3.org/2000/svg"
   xmlns="http://www.w3.org/2000/svg"
   xmlns:sodipodi="http://sodipodi.sourceforge.net/DTD/sodipodi-0.dtd"
   xmlns:inkscape="http://www.inkscape.org/namespaces/inkscape"
   width="275.37213"
   height="259.03677"
   id="svg2"
   sodipodi:version="0.32"
   inkscape:version="0.46"
   sodipodi:docname="diag.svg"
   inkscape:output_extension="org.inkscape.output.svg.inkscape"
   version="1.0"
   style="display:inline">
  <defs
     id="defs4">
    <inkscape:perspective
       sodipodi:type="inkscape:persp3d"
       inkscape:vp_x="0 : 526.18109 : 1"
       inkscape:vp_y="0 : 1000 : 0"
       inkscape:vp_z="744.09448 : 526.18109 : 1"
       inkscape:persp3d-origin="372.04724 : 350.78739 : 1"
       id="perspective10" />
  </defs>
  <sodipodi:namedview
     id="base"
     pagecolor="#ffffff"
     bordercolor="#666666"
     borderopacity="1.0"
     gridtolerance="10000"
     guidetolerance="10"
     objecttolerance="10"
     inkscape:pageopacity="0.0"
     inkscape:pageshadow="2"
     inkscape:zoom="1.8012944"
     inkscape:cx="250.09793"
     inkscape:cy="131.85715"
     inkscape:document-units="px"
     inkscape:current-layer="layer2"
     showgrid="false"
     inkscape:window-width="1280"
     inkscape:window-height="725"
     inkscape:window-x="0"
     inkscape:window-y="25" />
  <metadata
     id="metadata7">
    <rdf:RDF>
      <cc:Work
         rdf:about="">
        <dc:format>image/svg+xml</dc:format>
        <dc:type
           rdf:resource="http://purl.org/dc/dcmitype/StillImage" />
      </cc:Work>
    </rdf:RDF>
  </metadata>
  <g
     inkscape:label="Layer 1"
     inkscape:groupmode="layer"
     id="layer1"
     style="display:inline"
     transform="translate(-195.85894,-159.5397)">
    <path
       style="fill:none;fill-rule:evenodd;stroke:#000000;stroke-width:1px;stroke-linecap:butt;stroke-linejoin:miter;stroke-opacity:1"
       d="M 307.85715,180.93361 L 307.85715,418.07646"
       id="path2391" />
    <path
       style="fill:none;fill-rule:evenodd;stroke:#000000;stroke-width:0.99999994px;stroke-linecap:butt;stroke-linejoin:miter;stroke-opacity:1"
       d="M 196.35894,300.93361 L 454.57689,300.93361"
       id="path2393" />
    <path
       style="fill:none;fill-rule:evenodd;stroke:#000000;stroke-width:0.99999994px;stroke-linecap:butt;stroke-linejoin:miter;stroke-opacity:1"
       d="M 328.78807,294.13741 C 328.78807,295.25234 328.78807,299.46418 328.78807,302.08759 C 328.78807,304.57203 328.78807,307.05646 328.78807,309.54089"
       id="path2395" />
    <path
       style="fill:none;fill-rule:evenodd;stroke:#000000;stroke-width:1px;stroke-linecap:butt;stroke-linejoin:miter;stroke-opacity:1"
       d="M 299.19906,283.02082 C 299.97658,283.02082 306.80534,283.02082 310.62763,283.02082 C 312.29429,283.02082 313.96096,283.02082 315.62763,283.02082"
       id="path2421" />
    <path
       style="fill:none;fill-rule:evenodd;stroke:#000000;stroke-width:1px;stroke-linecap:butt;stroke-linejoin:miter;stroke-opacity:1"
       d="M 285.9078,207.35777 C 287.23876,207.35777 287.10731,212.10225 287.10731,214.37232 C 287.10731,216.24307 291.86552,214.20791 292.30519,216.0228 C 292.88011,218.39601 290.18017,220.18147 288.70666,220.56163 C 288.29247,220.66849 287.56579,220.56163 287.10731,220.56163"
       id="path2427" />
    <path
       style="fill:none;fill-rule:evenodd;stroke:#000000;stroke-width:1px;stroke-linecap:butt;stroke-linejoin:miter;stroke-opacity:1"
       d="M 286.54186,207.35348 C 284.72705,207.82169 290.26891,206.94086 292.13957,206.94086"
       id="path2429" />
    <path
       style="fill:none;fill-rule:evenodd;stroke:#000000;stroke-width:0.99999994px;stroke-linecap:butt;stroke-linejoin:miter;stroke-opacity:1"
       d="M 354.81608,293.35949 C 354.81608,294.47442 354.81608,298.68626 354.81608,301.30967 C 354.81608,303.79411 354.81608,306.27854 354.81608,308.76297"
       id="path2437" />
    <path
       style="fill:none;fill-rule:evenodd;stroke:#000000;stroke-width:0.99999994px;stroke-linecap:butt;stroke-linejoin:miter;stroke-opacity:1"
       d="M 379.56482,293.35948 C 379.56482,294.47441 379.56482,298.68625 379.56482,301.30966 C 379.56482,303.7941 379.56482,306.27853 379.56482,308.76296"
       id="path2439" />
    <path
       style="fill:none;fill-rule:evenodd;stroke:#000000;stroke-width:0.99999994px;stroke-linecap:butt;stroke-linejoin:miter;stroke-opacity:1"
       d="M 403.80848,292.60187 C 403.80848,293.7168 403.80848,297.92864 403.80848,300.55205 C 403.80848,303.03649 403.80848,305.52092 403.80848,308.00535"
       id="path2441" />
    <path
       style="fill:none;fill-rule:evenodd;stroke:#000000;stroke-width:0.99999994px;stroke-linecap:butt;stroke-linejoin:miter;stroke-opacity:1"
       d="M 429.56737,292.85441 C 429.56737,293.96934 429.56737,298.18118 429.56737,300.80459 C 429.56737,303.28903 429.56737,305.77346 429.56737,308.25789"
       id="path2443" />
    <path
       style="fill:none;fill-rule:evenodd;stroke:#000000;stroke-width:1px;stroke-linecap:butt;stroke-linejoin:miter;stroke-opacity:1"
       d="M 299.37716,265.95842 C 300.15468,265.95842 306.98344,265.95842 310.80573,265.95842 C 312.47239,265.95842 314.13906,265.95842 315.80573,265.95842"
       id="path2445" />
    <path
       style="fill:none;fill-rule:evenodd;stroke:#000000;stroke-width:1px;stroke-linecap:butt;stroke-linejoin:miter;stroke-opacity:1"
       d="M 299.37717,249.2909 C 300.15469,249.2909 306.98345,249.2909 310.80574,249.2909 C 312.4724,249.2909 314.13907,249.2909 315.80574,249.2909"
       id="path2447" />
    <path
       style="fill:none;fill-rule:evenodd;stroke:#000000;stroke-width:1px;stroke-linecap:butt;stroke-linejoin:miter;stroke-opacity:1"
       d="M 299.37717,231.3607 C 300.15469,231.3607 306.98345,231.3607 310.80574,231.3607 C 312.4724,231.3607 314.13907,231.3607 315.80574,231.3607"
       id="path2449" />
    <path
       style="fill:none;fill-rule:evenodd;stroke:#000000;stroke-width:1px;stroke-linecap:butt;stroke-linejoin:miter;stroke-opacity:1"
       d="M 299.6297,214.18811 C 300.40722,214.18811 307.23598,214.18811 311.05827,214.18811 C 312.72493,214.18811 314.3916,214.18811 316.05827,214.18811"
       id="path2451" />
    <path
       style="fill:none;fill-rule:evenodd;stroke:#000000;stroke-width:1px;stroke-linecap:butt;stroke-linejoin:miter;stroke-opacity:1"
       d="M 301.53054,190.70206 C 301.57187,189.77124 302.77252,188.21809 303.2983,187.16653 C 304.06376,185.63562 304.87864,184.82857 306.07622,183.63099 C 307.11796,182.58925 307.99698,181.15416 308.6016,180.348 C 309.30328,179.41243 309.84637,182.33246 310.36937,183.37845 C 311.04026,184.72024 311.52799,185.19061 312.13714,186.40891 C 312.67221,187.47906 313.66143,188.43828 314.40998,189.18683 C 314.57834,189.35519 314.7467,189.52355 314.91506,189.69191"
       id="path2453" />
    <path
       style="fill:none;fill-rule:evenodd;stroke:#000000;stroke-width:1px;stroke-linecap:butt;stroke-linejoin:miter;stroke-opacity:1"
       d="M 447.49757,293.23255 C 448.5516,293.28765 450.00571,294.22546 451.03311,295.25286 C 452.1376,296.35734 452.29658,297.52648 453.30595,298.53585 C 454.74384,299.97374 455.03628,300.5936 453.81103,301.81885 C 452.77075,302.85912 451.53092,303.84642 450.78057,304.59677 C 449.80662,305.57072 448.67467,306.53572 448.25519,307.37469"
       id="path2403" />
    <path
       style="fill:none;fill-rule:evenodd;stroke:#000000;stroke-width:1px;stroke-linecap:butt;stroke-linejoin:miter;stroke-opacity:1"
       d="M 460.8821,305.85946 C 459.56536,307.17619 463.08103,304.41814 464.67017,302.829 C 465.98044,301.51872 466.96796,300.53121 467.95316,299.546 C 468.3343,299.16487 468.83472,298.91699 469.21585,298.53585"
       id="path2406" />
    <path
       style="fill:none;fill-rule:evenodd;stroke:#000000;stroke-width:1px;stroke-linecap:butt;stroke-linejoin:miter;stroke-opacity:1"
       d="M 461.63971,298.28331 C 462.47569,297.44733 464.21255,299.98838 464.41763,300.80869 C 464.72128,302.02331 465.34045,302.73219 465.68032,304.09169 C 466.10246,305.78023 466.77099,305.93997 467.70063,306.86961 C 468.6696,307.83859 469.76211,305.06067 470.73108,304.09169"
       id="path2408" />
    <path
       style="fill:none;fill-rule:evenodd;stroke:#000000;stroke-width:1px;stroke-linecap:butt;stroke-linejoin:miter;stroke-opacity:1"
       d="M 305.57114,163.93303 C 306.42339,164.78528 305.77774,161.12065 304.81353,160.39749 C 303.7119,159.57127 302.02881,160.40089 301.53053,160.65003 C 300.93202,160.94928 301.27799,163.54457 301.27799,164.18556 C 301.27799,165.44825 301.27799,166.71094 301.27799,167.97364 C 301.27799,169.42234 301.02546,170.54972 301.02546,172.01425 C 301.02546,172.68768 301.02546,173.36112 301.02546,174.03455"
       id="path2410" />
    <path
       style="fill:none;fill-rule:evenodd;stroke:#000000;stroke-width:1px;stroke-linecap:butt;stroke-linejoin:miter;stroke-opacity:1"
       d="M 297.995,167.7211 C 297.995,169.06797 300.68874,167.7211 302.03561,167.7211 C 303.27677,167.7211 304.69827,167.75542 305.57114,167.97364"
       id="path2412" />
    <path
       style="fill:none;fill-rule:evenodd;stroke:#000000;stroke-width:1px;stroke-linecap:butt;stroke-linejoin:miter;stroke-opacity:1"
       d="M 310.13713,161.15511 C 311.60726,161.15511 309.02683,163.88079 308.36937,165.19572 C 307.87739,166.17966 308.11683,167.81193 308.11683,168.98379 C 308.11683,170.54832 307.89876,171.89659 309.37952,172.26678"
       id="path2414" />
    <path
       style="fill:none;fill-rule:evenodd;stroke:#000000;stroke-width:1px;stroke-linecap:butt;stroke-linejoin:miter;stroke-opacity:1"
       d="M 311.37952,170.75156 C 311.37952,170.79064 313.83483,168.29625 314.40998,167.7211 C 314.99923,167.13184 315.58849,166.54259 316.17774,165.95333"
       id="path2416" />
    <path
       style="fill:none;fill-rule:evenodd;stroke:#000000;stroke-width:1px;stroke-linecap:butt;stroke-linejoin:miter;stroke-opacity:1"
       d="M 311.8846,165.70079 C 312.97731,164.60808 313.46635,168.35922 314.15744,169.74141 C 315.04658,171.51968 315.99494,170.29218 317.1879,169.99394"
       id="path2418" />
    <path
       style="fill:none;fill-rule:evenodd;stroke:#000000;stroke-width:1px;stroke-linecap:butt;stroke-linejoin:miter;stroke-opacity:1"
       d="M 318.74374,162.16526 C 319.05694,162.79166 319.24881,164.55732 319.24881,166.20587 C 319.24881,167.46856 319.24881,168.73125 319.24881,169.99394 C 319.24881,171.49971 318.57357,172.44236 318.23866,173.78201"
       id="path2420" />
  </g>
  <g
     inkscape:groupmode="layer"
     id="layer2"
     inkscape:label="values"
     style="display:inline"
     transform="translate(-195.85894,-159.5397)">
    <path
       style="fill:none;fill-rule:evenodd;stroke:#000000;stroke-width:1px;stroke-linecap:butt;stroke-linejoin:miter;stroke-opacity:1;display:inline"
       d="M 377.39868,209.38453 C 379.275,207.84579 377.41335,209.39154 379.28672,207.84921 C 385.91884,202.38684 392.58043,196.85568 399.28693,191.23267 M 239.52907,319.96942 C 284.44991,283.72932 326.12506,251.31054 368.68169,216.54725 C 370.34338,215.19029 368.26722,216.91797 369.92608,215.55755"
       id="path2422"
       sodipodi:nodetypes="cccccs" />
    <path
       style="fill:none;fill-rule:evenodd;stroke:#000000;stroke-width:1px;stroke-linecap:butt;stroke-linejoin:miter;stroke-opacity:1"
       d="M 182.49029,59.072002 C 183.69287,58.482099 188.08391,58.544573 190.92915,58.544573"
       id="path2425"
       transform="translate(138.5,154.86218)" />
    <path
       style="fill:none;fill-rule:evenodd;stroke:#000000;stroke-width:1px;stroke-linecap:butt;stroke-linejoin:miter;stroke-opacity:1"
       d="M 196.20344,58.544573 C 197.02596,58.544573 201.13641,58.544573 203.58744,58.544573"
       id="path2428"
       transform="translate(138.5,154.86218)" />
    <path
       style="fill:none;fill-rule:evenodd;stroke:#000000;stroke-width:1px;stroke-linecap:butt;stroke-linejoin:miter;stroke-opacity:1"
       d="M 212.02629,58.017145 C 212.84406,57.49875 216.94906,57.489716 219.41029,57.489716"
       id="path2430"
       transform="translate(138.5,154.86218)" />
    <path
       style="fill:none;fill-rule:evenodd;stroke:#000000;stroke-width:1px;stroke-linecap:butt;stroke-linejoin:miter;stroke-opacity:1"
       d="M 224.15715,57.489716 C 224.21369,57.489716 225.86599,57.489716 227.32172,57.489716"
       id="path2432"
       transform="translate(138.5,154.86218)" />
    <path
       style="fill:none;fill-rule:evenodd;stroke:#000000;stroke-width:1px;stroke-linecap:butt;stroke-linejoin:miter;stroke-opacity:1"
       d="M 238.39772,52.742859 C 235.99829,52.481005 232.49093,52.320508 230.48629,54.325145 C 228.60365,56.207786 231.54685,61.187414 232.59601,62.236573 C 234.89731,64.537874 237.05019,66.456002 240.50744,66.456002 C 244.58581,66.456002 242.93244,61.284876 242.08972,59.599431 C 241.01357,57.447116 239.51792,55.543344 238.39772,52.742859 z"
       id="path2434"
       transform="translate(138.5,154.86218)" />
    <path
       style="fill:none;fill-rule:evenodd;stroke:#000000;stroke-width:1px;stroke-linecap:butt;stroke-linejoin:miter;stroke-opacity:1"
       d="M 238.39772,69.620574 C 237.76383,68.352793 238.74934,72.433526 238.92515,73.840002"
       id="path2436"
       transform="translate(138.5,154.86218)" />
    <path
       style="fill:none;fill-rule:evenodd;stroke:#000000;stroke-width:1px;stroke-linecap:butt;stroke-linejoin:miter;stroke-opacity:1"
       d="M 246.30915,82.806288 C 246.30915,82.806288 246.30915,82.806288 246.30915,82.806288 z"
       id="path2438"
       transform="translate(138.5,154.86218)" />
    <path
       style="fill:none;fill-rule:evenodd;stroke:#000000;stroke-width:1px;stroke-linecap:butt;stroke-linejoin:miter;stroke-opacity:1"
       d="M 378.48001,233.44904 C 378.29033,233.06967 377.42516,240.38229 377.42516,242.41533"
       id="path2440" />
    <path
       style="fill:none;fill-rule:evenodd;stroke:#000000;stroke-width:1px;stroke-linecap:butt;stroke-linejoin:miter;stroke-opacity:1"
       d="M 240.50743,92.300003 C 240.57367,96.937757 239.69331,101.71156 240.50744,105.48572"
       id="path2442"
       transform="translate(138.5,154.86218)"
       sodipodi:nodetypes="cc" />
    <path
       style="fill:none;fill-rule:evenodd;stroke:#000000;stroke-width:1px;stroke-linecap:butt;stroke-linejoin:miter;stroke-opacity:1"
       d="M 241.56229,114.97943 C 241.56229,116.70791 240.50744,121.98958 240.50744,124.47315"
       id="path2444"
       transform="translate(138.5,154.86218)" />
    <path
       style="fill:none;fill-rule:evenodd;stroke:#000000;stroke-width:1px;stroke-linecap:butt;stroke-linejoin:miter;stroke-opacity:1"
       d="M 238.92515,71.202859 C 235.24411,71.750443 235.08525,73.678064 235.23315,75.949717 C 235.61201,81.705701 237.79763,80.713014 238.92515,81.224003 C 241.84564,82.547562 244.38776,78.737647 244.72687,78.059431 C 246.29973,74.913709 244.76113,74.391818 242.74373,72.510882 C 241.63757,71.479543 240.86561,71.514716 238.92515,71.202859 z"
       id="path2446"
       transform="translate(138.5,154.86218)"
       sodipodi:nodetypes="cssssc" />
    <path
       style="fill:#000000;fill-opacity:1;stroke:#000000;stroke-width:1px;stroke-linecap:butt;stroke-linejoin:miter;stroke-opacity:1"
       d="M 240.07705,80.955554 C 240.07705,80.821795 240.34567,79.13216 240.39318,78.967026 C 240.47029,78.699051 240.47004,78.713443 240.39763,78.713443 C 240.36509,78.713443 240.26348,78.684936 240.17184,78.650094 L 240.00523,78.586746 L 240.13608,78.402981 C 240.20805,78.30191 240.26693,78.204192 240.26693,78.185828 C 240.26693,78.167464 240.17965,78.090294 240.07298,78.014338 L 239.87904,77.876237 L 239.72845,78.01771 C 239.64562,78.095522 239.5314,78.257081 239.47462,78.376732 C 239.37557,78.585475 239.18776,79.54118 239.09345,80.316429 C 239.04988,80.674593 239.04384,80.684041 238.884,80.643924 C 238.79348,80.621205 238.56206,80.574253 238.36975,80.539588 C 237.24011,80.335967 236.87428,80.087918 236.44393,79.233788 C 235.79774,77.951268 235.52516,74.669701 235.96715,73.493861 C 236.15813,72.985814 236.61172,72.535791 237.23223,72.238737 C 237.4915,72.114619 237.77908,71.994543 237.8713,71.971902 C 238.06227,71.925017 238.06484,71.93283 238.27759,73.207088 C 238.33861,73.572596 238.40532,73.891237 238.42583,73.915179 C 238.46015,73.955241 239.3687,73.809953 239.42293,73.75573 C 239.43604,73.742619 239.37497,73.322598 239.28723,72.822352 C 239.19948,72.322104 239.12768,71.880611 239.12768,71.841255 C 239.12768,71.790565 239.35296,71.804049 239.90018,71.887496 C 241.39352,72.115218 241.62392,72.229994 242.95681,73.410162 C 244.01535,74.34741 244.54218,74.902545 244.69714,75.244011 C 245.0419,76.003697 244.63988,77.383843 243.71259,78.62397 C 242.93014,79.670394 241.88054,80.533557 241.0787,80.790013 C 240.72271,80.903867 240.07705,81.010575 240.07705,80.955554 z"
       id="path2448"
       transform="translate(138.5,154.86218)" />
    <path
       style="fill:none;fill-rule:evenodd;stroke:#000000;stroke-width:1px;stroke-linecap:butt;stroke-linejoin:miter;stroke-opacity:1"
       d="M 238.71723,163.78615 C 240.92456,163.74618 244.2397,165.42253 245.93426,167.11709 C 248.70646,169.8893 246.70768,173.11468 244.26879,174.33412 C 243.01161,174.96272 234.54921,174.33412 240.93785,174.33412 C 244.81412,174.33412 245.71916,175.13921 246.48942,178.22022 C 247.25083,181.26588 246.16189,184.09931 244.82395,185.43725 C 243.76198,186.49922 241.97534,186.54756 239.82754,186.54756"
       id="path3220"
       transform="translate(138.5,154.86218)" />
    <path
       style="fill:none;fill-rule:evenodd;stroke:#000000;stroke-width:1px;stroke-linecap:butt;stroke-linejoin:miter;stroke-opacity:1"
       d="M 151.55768,71.075044 C 150.01697,73.470174 150.86093,77.170555 151.00252,77.73692 C 151.45358,79.541144 154.74986,77.841021 156.55409,78.292077"
       id="path3222"
       transform="translate(138.5,154.86218)" />
    <path
       style="fill:none;fill-rule:evenodd;stroke:#000000;stroke-width:1px;stroke-linecap:butt;stroke-linejoin:miter;stroke-opacity:1"
       d="M 153.22315,73.850826 C 153.60779,75.389386 153.97897,79.154879 153.22315,82.178171"
       id="path3224"
       transform="translate(138.5,154.86218)" />
    <path
       style="fill:none;fill-rule:evenodd;stroke:#000000;stroke-width:1px;stroke-linecap:butt;stroke-linejoin:miter;stroke-opacity:1"
       d="M 183.20159,76.626608 C 184.24958,76.626608 188.78624,76.626608 191.52894,76.626608"
       id="path3228"
       transform="translate(138.5,154.86218)" />
    <path
       style="fill:none;fill-rule:evenodd;stroke:#000000;stroke-width:1px;stroke-linecap:butt;stroke-linejoin:miter;stroke-opacity:1"
       d="M 198.74597,77.181764 C 199.3979,77.181764 203.58813,77.181764 205.963,77.181764"
       id="path3230"
       transform="translate(138.5,154.86218)" />
    <path
       style="fill:none;fill-rule:evenodd;stroke:#000000;stroke-width:1px;stroke-linecap:butt;stroke-linejoin:miter;stroke-opacity:1"
       d="M 217.06613,75.516295 C 217.32132,75.516295 221.17614,75.516295 223.17285,75.516295"
       id="path3232"
       transform="translate(138.5,154.86218)" />
    <path
       style="fill:none;fill-rule:evenodd;stroke:#000000;stroke-width:1px;stroke-linecap:butt;stroke-linejoin:miter;stroke-opacity:1"
       d="M 230.94504,76.626608 C 234.02924,76.626608 222.86443,76.626608 233.72082,76.626608"
       id="path3234"
       transform="translate(138.5,154.86218)" />
  </g>
</svg>
